<svg width="100" height="100" viewBox="0 0 100 100" fill="none" xmlns="http://www.w3.org/2000/svg">
<g clip-path="url(#clip0_3763_14)">
<path d="M0 48C0 25.3726 0 14.0589 7.02944 7.02944C14.0589 0 25.3726 0 48 0H52C74.6274 0 85.9411 0 92.9706 7.02944C100 14.0589 100 25.3726 100 48V52C100 74.6274 100 85.9411 92.9706 92.9706C85.9411 100 74.6274 100 52 100H48C25.3726 100 14.0589 100 7.02944 92.9706C0 85.9411 0 74.6274 0 52V48Z" fill="white"/>
<path d="M80 76.4828H43.7742V82H19V50.8527C19 41.791 22.6283 34.0502 29.8848 27.6301C37.1791 21.21 45.9473 18 56.1896 18H80V39.9185H56.1896C52.7881 39.9185 49.859 40.9885 47.4024 43.1285C44.9836 45.2685 43.7742 47.8433 43.7742 50.8527V54.5643H80V76.4828Z" fill="#FF5849"/>
</g>
<defs>
<clipPath id="clip0_3763_14">
<rect width="100" height="100" fill="white"/>
</clipPath>
</defs>
</svg>
