<svg width="1000" height="1000" viewBox="0 0 1000 1000" fill="none" xmlns="http://www.w3.org/2000/svg">
<rect width="1000" height="1000" rx="500" fill="white"/>
<mask id="mask0_3186_13" style="mask-type:luminance" maskUnits="userSpaceOnUse" x="125" y="149" width="750" height="851">
<path d="M244.8 675.045C244.8 675.045 192.831 745.862 189.895 773.574C147.53 866.303 129.979 933.152 129.979 933.152L125.524 1000L840.735 994.506V899.982L841.651 876.728L874.161 655.87L762.628 601.093C762.628 601.093 707.705 592.99 697.516 582.066C687.328 571.142 715.355 277.276 715.355 277.276L505.173 149L314.459 261.727L309.013 408.475L389.194 574.5L398.104 603.739C398.104 603.739 364.159 618.298 361.945 619.334C359.732 620.37 242.846 664.436 242.846 664.436L244.809 675.055L244.8 675.045Z" fill="white"/>
</mask>
<g mask="url(#mask0_3186_13)">
<path d="M904.92 890.538C899.928 890.464 894.241 891.444 888.767 891.315C880.117 891.102 870.002 889.289 861.889 889.058C858.786 888.975 842.985 891.463 841.633 890.103C841.79 885.672 841.411 881.168 841.651 876.728C844.513 824.078 846.653 752.707 837.984 701.213C834.186 678.653 830.25 663.511 814.903 646.325C799.083 628.611 788.728 618.742 766.703 608.373C760.313 605.357 749.356 600.187 742.872 598.438C736.658 596.764 730.961 597.31 725.163 594.6H743.799C745.169 587.727 732.11 581.058 726.969 581.78C723.793 582.224 720.403 588.245 716.92 589.392C712.725 590.77 702.323 583.898 697.526 582.076C685.596 577.552 672.102 573.353 661.367 569.107C656.199 567.063 650.697 565.639 645.575 563.465C638.805 563.502 609.574 592.195 602.229 598.068C567.886 625.568 505.414 654.39 461.586 637.371C456.381 635.345 449.48 632.034 448.415 625.984L455.464 622.525L456.066 626.003L464.735 625.929C465.189 630.822 471.487 631.442 475.859 631.821C474.895 629.148 475.368 624.338 474.701 622.201C474.219 620.666 469.496 620.851 471.376 615.144C472.561 611.545 478.896 612.461 481.805 611.508L481.934 608.761C484.593 605.801 493.975 610.852 496.716 612.748C497.244 613.109 504.339 618.945 504.682 619.352C505.497 620.342 504.793 622.784 506.877 623.552C510.628 624.93 515.333 622.34 517.751 619.445C514.583 614.302 516.352 609.51 515.435 604.747C515.12 603.11 506.497 598.522 505.765 596.662C505.414 595.784 503.089 587.542 503.098 587.043C503.135 584.73 507.738 580.91 501.505 576.572L505.006 575.989C502.403 572.705 505.33 569.995 508.174 567.794C509.035 567.128 514.981 566.258 511.23 564.362C498.18 561.384 509.563 555.584 515.472 552.143L510.878 547.407L513.157 545.187L510.813 541.099L516.63 542.246L515.472 538.768C517.926 539.11 519.538 540.849 521.289 538.176C518.306 537.066 517.667 534.939 517.806 531.794L523.632 534.106C522.057 531.22 524.391 529.916 524.623 527.761C524.725 526.771 523.484 524.958 523.613 524.81C523.734 524.681 525.929 524.875 527.003 524.153C530.106 522.063 530.615 518.474 535.265 521.304L534.107 514.321L530.643 513.738C531.616 512.425 533.635 512.073 534.542 510.834C538.794 505.043 544.305 499.651 549.167 493.869C550.464 492.334 553.668 491.113 553.798 490.873C554.641 489.393 548.871 480.91 556.262 478.839C549.908 476.323 556.197 471.115 556.317 465.991C556.429 461.051 552.251 456.593 555.095 450.331C559.652 451.052 572.248 453.707 576.36 452.467C576.712 452.366 582.483 449.128 582.733 448.869C583.279 448.296 584.048 444.957 584.177 443.893C584.557 440.794 583.205 442.866 581.908 442.774C570.711 441.941 559.115 445.909 562.069 429.408L558.031 432.571C554.474 433.052 552.9 423.562 552.714 420.731C552.418 416.143 553.882 412.721 553.928 409.049C554.011 402.935 552.807 396.164 553.993 389.337C554.585 385.934 561.921 374.732 564.477 377.775C568.664 382.761 568.154 390.882 569.192 397.283C569.571 399.596 571.248 400.844 571.498 404.322C572.026 411.703 569.201 410.732 567.302 415.422C564.459 422.424 559.309 431.544 571.396 429.389L569.062 423.589C572.952 423.922 575.971 422.48 578.379 419.501L576.055 418.169V414.275C594.143 416.856 579.945 403.369 580.713 402.648L587.688 407.291L586.549 396.821C592.523 401.14 597.32 410.695 590.04 416.023C594.801 417.142 598.617 410.131 602.275 407.301C603.47 408.901 602.044 410.251 605.165 409.622C604.526 406.561 607.61 405.071 608.361 402.916C610.685 396.192 607.221 381.373 605.11 374.214C602.581 365.658 598.867 359.664 588.827 362.476C586.354 363.17 584.446 365.455 582.14 366.278C581.899 366.361 576.296 367.193 577.222 364.844C602.47 342.182 617.53 368.174 615.64 393.898C614.159 414.071 601.192 431.091 603.961 453.198C604.906 462.244 604.054 473.612 605.174 482.353C605.378 483.963 605.85 485.804 607.49 484.083C610.509 465.417 616.622 447.241 621.642 428.982C626.736 410.464 630.321 396.885 633.247 377.757C633.794 374.214 638.212 356.519 637.489 355.215C637.304 354.882 635.785 355.011 635.396 354.327C635.026 351.497 641.657 344.892 635.591 342.82L636.628 335.18L641.268 336.336C641.055 330.777 641.648 325.116 641.185 319.566C640.972 317.06 639.018 314.581 638.953 312.361C638.842 308.901 644.918 300.225 639.536 295.646L635.461 297.949L634.878 295.619C633.97 298.736 632.757 298.088 629.645 297.949C629.246 293.352 635.1 294.203 636.628 290.994C629.478 289.541 631.025 275.315 627.894 270.034C626.94 268.415 622.457 267.86 620.244 266.038C615.103 261.829 617.122 256.64 607.99 256.177C606.693 261.219 604.341 256.853 602.877 254.309L606.943 253.717L607.508 251.414C603.794 252.32 600.543 249.841 597.459 249.444C595.773 249.222 593.606 250.655 591.995 250.341C590.92 250.128 590.902 247.927 589.994 247.436C584.353 244.365 575.795 241.748 570.451 239.463C570.247 239.38 569.775 236.577 567.126 236.503C563.449 236.392 563.959 239.777 563.829 242.108L559.754 239.204L563.236 236.3H556.262L559.744 241.535C556.317 243.089 551.733 239.666 548.408 238.899C529.847 234.625 520.64 236.734 505.812 222.36C504.348 220.945 503.246 215.747 499.569 215.543C496.179 215.414 484.426 231.314 482.851 218.854L479.999 221.287C472.969 219.502 465.939 214.923 458.381 217.078C455.149 220.788 464.8 216.376 466.55 217.68L463.068 222.323L478.211 225.829C473.849 235.624 472.608 228.002 471.033 227.124C469.922 226.495 467.606 228.04 465.392 227.596C460.345 226.587 453.463 220.297 449.823 221.121C448.832 221.343 449.786 225.2 444.442 222.286L445.59 220.011C442.599 218.78 443.655 222.092 442.506 222.351C440.246 222.841 437.208 221.953 434.615 222.425C427.326 223.748 422.852 228.816 418.814 234.561L421.12 235.106C420.602 242.155 413.775 245.938 409.478 250.822C407.718 252.82 407.051 256.205 404.921 257.907C400.929 261.098 397.974 258.536 392.01 264.206L401.327 261.894C397.206 265.473 393.732 268.776 393.158 274.677C388.731 276.268 391.361 264.974 392.01 264.206C383.887 271.921 386.267 280.181 394.335 286.896C398.141 290.069 404.06 290.707 403.671 295.619H405.393C419.675 282.142 434.059 274.834 453.482 271.514C468.801 268.896 482.555 270.468 496.3 278.127C503.487 282.132 496.485 284.611 501.496 285.166L498.013 288.626L503.83 289.819L501.523 292.714C503.079 295.027 503.987 294.287 506.164 293.288L507.933 301.492L514.314 301.446L510.776 311.241C514.185 312.703 514.5 315.302 514.314 318.882L510.841 316.56L509.804 328.613C510.489 330.537 513.777 330.509 515.537 332.22C519.51 336.096 521.733 343.921 528.309 344.485C528.735 347.473 527.957 346.909 525.512 346.696C498.189 344.3 468.903 329.242 440.394 337.539L440.941 335.171C430.058 335.772 413.155 340.129 404.754 347.297C402.781 348.981 401.883 352.773 399.373 353.559C394.297 355.15 383.489 349.804 379.21 356.084L385.211 357.083C374.718 355.973 343.662 370.773 341.291 378.136C338.67 386.276 343.319 384.777 345.172 388.339C346.839 391.548 347.117 400.502 348.321 404.97C352.6 420.796 356.499 427.817 374.532 422.415C368.54 438.944 376.524 458.581 377.589 475.555C377.672 476.859 376.589 478.913 376.876 479.412C376.95 479.532 378.506 478.265 379.719 479.347C382.424 481.761 382.081 486.146 382.933 487.311C383.785 488.468 387.972 487.709 387.37 491.021L389.546 490.873C389.352 488.292 392.176 489.069 392.806 488.403C397.521 483.38 403.93 475.536 409.469 470.662C412.766 467.757 419.898 466.749 416.915 463.114C406.82 461.736 395.353 461.819 386.684 467.72L383.285 465.454L379.784 472.419C376.672 471.133 378.635 458.905 383.544 456.408C391.25 452.486 408.061 449.036 416.471 451.496L412.988 456.13L427.381 456.306L429.271 461.403C444.053 461.403 429.539 470.726 432.8 477.063C427.168 477.007 426.381 480.753 422.88 484.046L417.656 480.559L418.332 485.286C412.655 486.238 414.22 488.838 412.859 490.947C412.692 491.206 407.746 489.735 406.671 490.086C404.977 490.651 405.18 493.213 404.319 493.231C399.808 493.333 396.965 488.542 392.584 495.673L391.436 493.314C387.49 492.593 388.064 496.08 387.175 496.607C386.814 496.82 382.09 498.864 380.293 499.734C377.144 501.26 375.134 496.959 375.644 506.754C376.755 528.075 412.97 538.546 430.141 543.088C438.255 545.234 445.127 541.524 445.35 554.419C445.59 568.118 444.859 581.65 443.284 595.145C442.821 599.077 444.081 603.591 442.701 607.365C441.598 610.371 440.255 606.671 439.774 605.616C437.116 599.826 435.421 595.118 436.801 588.661C437.625 584.832 440.07 583.26 440.922 581.151C443.09 575.804 432.244 585.331 431.503 585.711C422.287 590.363 420.824 591.131 412.201 596.681C410.256 597.939 399.725 603.415 398.113 603.674C393.603 604.395 391.612 600.187 387.638 599.419C380.562 598.05 373.717 604.793 374.542 611.989C375.431 612.97 385.499 606.245 387.286 605.533C388.305 605.135 392.214 603.914 391.991 606.162C390.38 606.449 388.472 606.819 387.045 607.623C370.707 616.79 351.266 621.026 337.827 635.253L339.578 630.618C338.781 630.036 324.694 638.25 322.11 639.341C310.356 644.299 297.121 646.362 285.58 651.717C277.078 655.667 269.52 662.003 261.907 666.471C256.386 669.717 250.098 671.919 244.809 674.99C238.928 678.394 238.678 682.769 228.48 680.799L227.748 684.11C224.21 684.804 222.469 684.166 221.487 682.843C216.449 688.43 214.106 694.757 212.763 702.166C211.799 707.475 211.179 713.016 209.512 718.186C210.938 718.815 212.374 719.222 213.717 719.084C215.365 721.026 208.428 732.301 206.205 734.142H200.333C196.684 738.823 192.701 743.281 189.219 748.072C189.432 748.091 189.663 748.1 189.876 748.119C191.386 748.248 198.054 748.674 197.406 750.921C190.237 772.584 182.615 794.09 178.012 816.502C176.465 824.041 176.659 832.958 174.825 840.08C173.418 845.519 169.5 851.753 167.796 857.488C158.376 889.058 148.753 920.23 138.398 951.448C136.972 955.758 129.858 976.616 130.007 979.114C130.405 986.125 136.601 981.204 138.704 980.834C147.66 979.262 162.081 983.609 170.685 986.597H270.863C280.208 972.056 298.14 954.676 315.107 949.931C333.946 944.668 370.327 959.393 390.833 963.926C456.547 978.439 524.317 988.909 591.782 984.173L611.009 986.597H651.781C649.965 984.285 650.929 983.785 652.29 981.907C659.783 971.631 688.995 966.46 701.295 965.665C735.083 963.482 769.51 969.032 798.555 986.597H836.993L840.484 892.369H911.542C911.57 890.741 906.059 890.501 904.939 890.482L904.92 890.538ZM628.459 285.157V286.877L626.718 288.616L623.81 287.469V285.157H628.459ZM599.33 252.588V254.901H593.514V252.588H599.33ZM440.107 229.381L423.445 237.437C429.336 230.722 431.179 222.786 442.08 224.654L440.117 229.371L440.107 229.381ZM450.231 240.934L444.405 239.768V237.456C446.035 236.771 451.018 240.305 450.231 240.934ZM465.392 451.505L468.301 445.697L470.051 449.165C466.569 448.185 467.375 450.664 465.402 451.496L465.392 451.505ZM537.608 408.466C537.293 405.589 537.525 402.343 541.091 402.657V408.475L537.608 408.466ZM510.813 353.8H514.296V356.112H510.813V353.8ZM508.47 352.634C508.489 358.61 499.986 357.204 495.901 356.556C490.567 355.714 482.073 353.883 480.527 347.972L508.47 352.625V352.634ZM399.53 414.081C389.463 413.637 393.325 414.155 384.193 416.153C382.674 416.486 372.661 417.512 372.134 417.216C362.492 411.787 384.359 390.605 387.823 386.267C390.843 382.483 396.548 368.84 402.346 372.549C405.291 381.068 407.283 395.054 412.951 402.084C414.229 403.665 416.73 404.026 417.943 406.431C422.537 415.496 404.754 414.303 399.53 414.071V414.081ZM432.336 430.638C431.429 430.888 431.642 432.784 431.095 432.775C423.954 432.673 420.546 427.983 416.48 423.016C418.795 419.057 427.057 417.272 430.178 420.389C431.095 421.305 430.91 423.497 431.883 424.477C433.124 425.726 437.505 426.207 438.588 428.853C439.913 432.109 432.846 430.508 432.346 430.647L432.336 430.638ZM454.584 431.295C454.528 430.841 450.666 423.654 450.286 423.201C449.545 422.332 444.257 420.417 443.581 419.769C442.988 419.196 443.506 417.392 442.978 416.874C441.849 415.764 438.273 418.289 439.95 412.129C443.692 412.184 444.933 408.975 447.489 407.458C449.629 406.191 458.39 403.129 459.437 401.288C459.817 400.622 458.474 398.615 458.9 396.811C460.011 392.02 465.392 385.619 469.449 382.853C477.961 377.045 500.319 366.222 510.304 366.731C512.536 366.842 514.203 368.932 516.074 368.877C517.454 368.84 519.621 366.796 522.984 366.49C529.319 365.917 532.412 368.849 537.608 368.914L536.46 375.879L539.933 376.453C538.127 378.413 539.229 381.17 538.784 383.26C538.525 384.491 535.107 383.464 536.469 386.368L539.951 385.212L538.794 391.021L541.702 390.216C544.953 391.594 542.545 394.342 542.276 396.839L538.794 395.674L539.951 399.152L536.58 398.023C531.921 404.452 534.82 410.64 532.959 417.762L531.801 413.119L528.893 415.459L527.161 413.128C527.05 414.367 522.65 419.575 522.27 419.806C521.937 420.01 519.936 418.854 517.436 420.204C514.407 421.841 512.953 426.281 511.406 427.077C508.22 428.723 510.026 419.501 506.182 421.268L505.497 424.866L499.18 425.92L500.171 428.825L498.004 431.729C494.772 431.174 498.634 424.274 498.022 423.608C493.836 423.479 494.605 429.852 490.011 428.048L488.723 425.939L488.112 436.419L482.888 435.226C486.121 430.212 484.639 422.147 484.167 416.153L478.091 416.014L477.109 419.594C473.552 418.502 473.728 420.093 471.19 422.026L473.562 428.27L470.061 427.706L473.562 437.575C471.95 433.163 475.812 431.23 476.525 428.862C476.896 427.613 476.025 423.284 477.081 421.296C478.517 419.936 484.287 425.809 482.907 428.27H478.23L478.804 430.582L481.721 429.435L479.387 439.897L476.488 436.428C473.487 438.833 471.404 438.75 472.395 443.384L471.237 441.072L468.931 441.09C468.542 444.3 463.975 446.548 460.882 447.001L461.928 452.699L458.613 452.893L458.418 456.214L456.103 455.03C456.89 459.081 453.861 460.894 452.407 464.178L446.831 463.095C445.137 460.7 455.158 435.919 454.63 431.332L454.584 431.295ZM771.723 616.152C768.028 614.94 764.675 612.887 760.581 612.147C759.544 611.962 746.772 612.766 750.782 609.723C759.775 608.373 766.944 613.405 775.234 615.551C775.474 617.734 772.863 616.522 771.723 616.143V616.152Z" fill="black"/>
</g>
</svg>
